<svg width="157" height="157" viewBox="0 0 157 157" fill="none" xmlns="http://www.w3.org/2000/svg">
<g clip-path="url(#clip0_2011_62405)">
<path d="M27.5766 108.009C27.955 106.597 29.4063 105.759 30.8183 106.138L105.699 126.202C107.111 126.58 107.949 128.032 107.571 129.444C107.193 130.855 105.741 131.693 104.329 131.315L29.4484 111.25C28.0364 110.872 27.1985 109.421 27.5766 108.009Z" fill="#343A46"/>
<path d="M49.4986 26.1991C49.8769 24.7872 51.3282 23.9493 52.7402 24.3276L127.621 44.3918C129.033 44.7702 129.871 46.2216 129.493 47.6335C129.114 49.0454 127.663 49.8834 126.251 49.505L51.3701 29.4407C49.9582 29.0624 49.1202 27.6111 49.4986 26.1991Z" fill="#343A46"/>
<path d="M57.1393 35.7732C58.1842 31.8734 62.1926 29.5592 66.0923 30.6042L112.789 43.1164C116.688 44.1613 119.003 48.1697 117.958 52.0694L99.733 120.085C98.6881 123.985 94.6796 126.299 90.78 125.254L44.0836 112.742C40.1839 111.697 37.8697 107.688 38.9146 103.789L57.1393 35.7732Z" fill="white"/>
<path fill-rule="evenodd" clip-rule="evenodd" d="M66.5645 28.8389L113.261 41.3511C118.136 42.6573 121.028 47.6677 119.722 52.5424L101.498 120.558C100.191 125.432 95.181 128.325 90.3064 127.019L43.61 114.506C38.7354 113.2 35.8426 108.19 37.1486 103.315L55.3733 35.3001C56.6795 30.4255 61.69 27.5327 66.5645 28.8389ZM66.0915 30.6041C62.1919 29.5592 58.1834 31.8735 57.1385 35.7731L38.9139 103.788C37.8689 107.688 40.1832 111.697 44.0828 112.742L90.7793 125.254C94.6789 126.299 98.6874 123.984 99.7323 120.085L117.957 52.0694C119.002 48.1697 116.688 44.1613 112.788 43.1164L66.0915 30.6041Z" fill="#343A46"/>
<path d="M53.1806 27.6119C53.9643 24.6871 56.9706 22.9515 59.8954 23.7352L121.591 40.2664C124.516 41.0501 126.251 44.0563 125.467 46.9811L125.335 47.476C124.551 50.4008 121.545 52.1365 118.62 51.3528L56.9248 34.8216C54 34.0379 52.2643 31.0316 53.048 28.1068L53.1806 27.6119Z" fill="#6E82F4"/>
<path fill-rule="evenodd" clip-rule="evenodd" d="M60.3677 21.9699L122.063 38.5011C125.963 39.5461 128.277 43.5545 127.232 47.4542L127.1 47.949C126.055 51.8488 122.046 54.1629 118.147 53.118L56.4511 36.5867C52.5513 35.5418 50.2371 31.5335 51.2821 27.6337L51.4146 27.1389C52.4596 23.2392 56.4679 20.9249 60.3677 21.9699ZM59.8947 23.7351C56.9698 22.9514 53.9636 24.6871 53.1799 27.6119L53.0473 28.1067C52.2636 31.0315 53.9992 34.0378 56.9241 34.8215L118.62 51.3528C121.544 52.1365 124.55 50.4006 125.334 47.4759L125.467 46.9811C126.25 44.0563 124.515 41.0501 121.59 40.2664L59.8947 23.7351Z" fill="#343A46"/>
<path fill-rule="evenodd" clip-rule="evenodd" d="M106.433 39.1755C106.564 38.6881 107.065 38.3989 107.553 38.5295L123.035 42.6781C123.523 42.8087 123.812 43.3097 123.681 43.7971C123.551 44.2846 123.05 44.5739 122.562 44.4433L107.08 40.2947C106.592 40.1641 106.303 39.663 106.433 39.1755Z" fill="#343A46"/>
<path d="M31.4638 108.658C32.2475 105.733 35.2538 103.997 38.1786 104.781L99.8741 121.312C102.799 122.096 104.534 125.102 103.751 128.027L103.457 129.121C102.674 132.046 99.6677 133.781 96.743 132.997L35.0475 116.466C32.1226 115.682 30.3868 112.677 31.1705 109.752L31.4638 108.658Z" fill="#6E82F4"/>
<path fill-rule="evenodd" clip-rule="evenodd" d="M38.6509 103.015L100.346 119.547C104.246 120.591 106.56 124.6 105.516 128.5L105.222 129.594C104.177 133.494 100.169 135.808 96.2691 134.763L34.5736 118.232C30.6739 117.187 28.3597 113.178 29.4046 109.279L29.6978 108.185C30.7427 104.285 34.7511 101.97 38.6509 103.015ZM38.1779 104.781C35.253 103.997 32.2467 105.733 31.463 108.657L31.1698 109.752C30.3861 112.677 32.1219 115.682 35.0467 116.466L96.7422 132.997C99.6671 133.781 102.673 132.046 103.457 129.121L103.75 128.027C104.534 125.102 102.798 122.095 99.8734 121.312L38.1779 104.781Z" fill="#343A46"/>
<path fill-rule="evenodd" clip-rule="evenodd" d="M34.0505 107.464C34.1813 106.976 34.6823 106.687 35.1697 106.818L56.769 112.605C57.2565 112.736 57.5458 113.237 57.4151 113.725C57.2844 114.212 56.7834 114.502 56.2959 114.371L34.6966 108.583C34.2091 108.453 33.9198 107.952 34.0505 107.464Z" fill="#343A46"/>
<path fill-rule="evenodd" clip-rule="evenodd" d="M92.822 127.816C92.9525 127.329 93.4538 127.039 93.9413 127.17L103.307 129.679C103.795 129.81 104.084 130.312 103.953 130.799C103.823 131.287 103.322 131.576 102.834 131.445L93.4681 128.936C92.9806 128.805 92.6913 128.304 92.822 127.816Z" fill="#343A46"/>
<path fill-rule="evenodd" clip-rule="evenodd" d="M61.6697 46.4388C61.8004 45.9513 62.3014 45.662 62.7888 45.7926L108.568 58.0591C109.056 58.1898 109.345 58.6908 109.214 59.1783C109.084 59.6657 108.583 59.955 108.095 59.8244L62.3158 47.5579C61.8284 47.4273 61.5391 46.9262 61.6697 46.4388Z" fill="#343A46"/>
<path fill-rule="evenodd" clip-rule="evenodd" d="M57.5975 61.6348C57.7281 61.1474 58.2291 60.8581 58.7166 60.9887L104.496 73.2552C104.983 73.3858 105.273 73.8868 105.142 74.3743C105.011 74.8618 104.51 75.151 104.023 75.0204L58.2436 62.7539C57.7562 62.6233 57.4669 62.1223 57.5975 61.6348Z" fill="#343A46"/>
<path fill-rule="evenodd" clip-rule="evenodd" d="M56.3436 66.3179C56.4742 65.8305 56.9752 65.5412 57.4626 65.6718L103.242 77.9383C103.729 78.0689 104.019 78.57 103.888 79.0574C103.757 79.5449 103.256 79.8341 102.769 79.7035L56.9897 67.437C56.5022 67.3064 56.213 66.8054 56.3436 66.3179Z" fill="#343A46"/>
<path fill-rule="evenodd" clip-rule="evenodd" d="M55.0877 71.0011C55.2183 70.5136 55.7194 70.2243 56.2068 70.3549L101.986 82.6214C102.473 82.752 102.763 83.2531 102.632 83.7406C102.502 84.228 102 84.5172 101.513 84.3866L55.7338 72.1201C55.2464 71.9895 54.9571 71.4885 55.0877 71.0011Z" fill="#343A46"/>
<path fill-rule="evenodd" clip-rule="evenodd" d="M53.8592 75.5885C53.9898 75.101 54.4909 74.8117 54.9783 74.9423L82.4076 82.292C82.8951 82.4226 83.1843 82.9236 83.0537 83.4111C82.9231 83.8985 82.4221 84.1878 81.9346 84.0572L54.5053 76.7075C54.0179 76.5769 53.7286 76.0759 53.8592 75.5885Z" fill="#343A46"/>
<path fill-rule="evenodd" clip-rule="evenodd" d="M60.4432 51.0159C60.5738 50.5285 61.0748 50.2392 61.5623 50.3698L86.5518 57.0657C87.0393 57.1963 87.3286 57.6974 87.198 58.1848C87.0674 58.6723 86.5663 58.9616 86.0788 58.8309L61.0893 52.135C60.6019 52.0044 60.3126 51.5034 60.4432 51.0159Z" fill="#343A46"/>
<path fill-rule="evenodd" clip-rule="evenodd" d="M49.201 92.972C49.3316 92.4845 49.8327 92.1952 50.3201 92.3258L63.0764 95.7439C63.5639 95.8745 63.8532 96.3756 63.7225 96.8631C63.5919 97.3505 63.0909 97.6397 62.6034 97.5091L49.8471 94.0911C49.3597 93.9605 49.0704 93.4594 49.201 92.972Z" fill="#343A46"/>
<path fill-rule="evenodd" clip-rule="evenodd" d="M86.2282 97.7768C86.6479 97.5345 87.1467 97.4689 87.6149 97.5944L93.5119 99.1744C94.4868 99.4357 95.0654 100.438 94.8042 101.413L92.4158 110.326C92.2372 110.993 91.6981 111.502 91.0223 111.642C90.3465 111.783 89.6492 111.53 89.2198 110.99L87.6987 109.076L85.4241 109.973C84.782 110.226 84.052 110.096 83.537 109.637C83.0219 109.177 82.8096 108.467 82.9883 107.8L85.3766 98.8866C85.5021 98.4184 85.8084 98.0193 86.2282 97.7768ZM88.2873 106.879L90.6506 109.853L93.0389 100.94L87.1419 99.3596L84.7536 108.273L88.2873 106.879Z" fill="#343A46"/>
<path d="M97.6548 99.5477C97.4282 100.394 96.316 100.584 95.831 101.253C95.3386 101.933 95.4699 103.088 94.7829 103.544C93.9501 104.097 92.8706 103.541 91.8696 103.697C90.9408 103.841 90.0979 104.728 89.1315 104.469C88.1652 104.21 87.8783 103.021 87.1462 102.431C86.3574 101.796 85.1446 101.737 84.6997 100.842C84.3327 100.104 85.0241 99.1688 84.9374 98.3341C84.852 97.512 83.9839 96.7912 84.2105 95.9453C84.4371 95.0996 85.5494 94.9092 86.0344 94.2401C86.4714 93.637 86.2602 92.5365 86.8536 92.1077C87.6431 91.5373 88.3252 91.9681 89.2869 91.7665C90.3211 91.5499 91.6436 90.7322 92.7339 91.0243C93.8241 91.3165 94.5608 92.6859 95.3479 93.3905C96.0801 94.0461 96.8862 94.014 97.2846 94.9027C97.5843 95.5707 96.851 96.4182 96.928 97.159C97.0134 97.981 97.8815 98.7019 97.6548 99.5477Z" fill="white"/>
<path fill-rule="evenodd" clip-rule="evenodd" d="M90.4181 92.3783C90.1267 92.4827 89.8001 92.593 89.476 92.6609C88.967 92.7675 88.4751 92.7392 88.1609 92.7211C88.0918 92.7172 88.0312 92.7137 87.9811 92.7122C87.6914 92.7039 87.5586 92.7304 87.4024 92.8398C87.3977 92.8512 87.3486 92.9395 87.2849 93.2774C87.2787 93.311 87.272 93.3483 87.2646 93.3886C87.2356 93.5491 87.1983 93.7555 87.1489 93.944C87.0847 94.1894 86.9799 94.4947 86.7759 94.7763C86.5717 95.058 86.3215 95.2625 86.1078 95.4146C85.9669 95.5148 85.7982 95.6206 85.663 95.7055C85.6099 95.7388 85.5619 95.7689 85.5228 95.7941C85.1598 96.0285 85.1101 96.1247 85.0948 96.1819C85.0795 96.239 85.0744 96.3472 85.2716 96.7317C85.2928 96.7731 85.3194 96.8231 85.3487 96.8784C85.4234 97.0196 85.5165 97.1955 85.5885 97.3528C85.6975 97.5914 85.8119 97.8936 85.8479 98.2397C85.8837 98.585 85.8364 98.9069 85.7799 99.1676C85.7402 99.3509 85.6844 99.5498 85.639 99.7114C85.6236 99.7669 85.6093 99.8179 85.5973 99.8623C85.4752 100.314 85.5072 100.411 85.5195 100.435C85.5894 100.576 85.7356 100.705 86.1707 100.901C86.2339 100.929 86.3081 100.96 86.3903 100.995C86.7627 101.153 87.299 101.379 87.7211 101.719C87.9943 101.939 88.2042 102.197 88.3689 102.423C88.4534 102.538 88.5646 102.703 88.6587 102.841C88.715 102.925 88.7652 102.999 88.7998 103.048C89.069 103.43 89.2216 103.546 89.3696 103.586C89.5176 103.626 89.7081 103.601 90.1322 103.405C90.1868 103.38 90.2673 103.341 90.3576 103.297C90.5085 103.223 90.6869 103.137 90.8179 103.079C91.0734 102.966 91.3842 102.848 91.7307 102.794C92.2662 102.71 92.844 102.782 93.2453 102.832C93.3338 102.843 93.4138 102.853 93.4827 102.86C93.9574 102.908 94.1486 102.869 94.2793 102.782C94.3023 102.767 94.3782 102.7 94.4985 102.247C94.5104 102.203 94.5234 102.152 94.5377 102.096C94.5792 101.933 94.6304 101.733 94.6876 101.554C94.7691 101.3 94.889 100.998 95.0927 100.717C95.2969 100.435 95.5471 100.231 95.7608 100.078C95.9019 99.9783 96.0704 99.8725 96.2057 99.7876C96.2587 99.7543 96.3067 99.7242 96.3458 99.699C96.7088 99.4646 96.7586 99.3684 96.7739 99.3113C96.7892 99.2541 96.7942 99.1459 96.597 98.7614C96.5758 98.72 96.5493 98.67 96.52 98.6146C96.4453 98.4734 96.3522 98.2976 96.2802 98.1403C96.1711 97.9017 96.0567 97.5995 96.0208 97.2534C95.9849 96.9075 96.0468 96.5908 96.1138 96.3462C96.1653 96.1582 96.2362 95.9609 96.2914 95.8073C96.3052 95.7688 96.318 95.733 96.3293 95.7009C96.4432 95.3764 96.4448 95.2753 96.4464 95.2632C96.366 95.0903 96.264 95.0009 96.0091 94.8633C95.9649 94.8395 95.9107 94.8123 95.8489 94.7811C95.5677 94.6397 95.1275 94.4182 94.7401 94.0714C94.4933 93.8505 94.2657 93.5918 94.0655 93.3556C93.9969 93.2748 93.9323 93.1975 93.8694 93.1224C93.7359 92.9627 93.6111 92.8136 93.476 92.6629C93.071 92.2114 92.7671 91.9789 92.499 91.907C92.2309 91.8352 91.8515 91.8846 91.275 92.0731C91.0827 92.1361 90.9 92.2029 90.7045 92.2744C90.6127 92.308 90.518 92.3426 90.4181 92.3783ZM90.7069 90.3362C91.3228 90.1347 92.1499 89.9214 92.972 90.1417C93.7941 90.362 94.4038 90.9603 94.8364 91.4427C94.9933 91.6176 95.1518 91.807 95.2947 91.9778C95.3525 92.0469 95.4077 92.1129 95.4593 92.1736C95.6526 92.4016 95.8122 92.5783 95.959 92.7098C96.1498 92.8806 96.3181 92.9665 96.569 93.0945C96.6593 93.1405 96.7604 93.1921 96.877 93.255C97.3012 93.484 97.8031 93.8218 98.1201 94.5288C98.4332 95.2271 98.1832 95.9379 98.0608 96.2857C98.0583 96.2927 98.056 96.2997 98.0536 96.3063C98.033 96.3647 98.0142 96.4176 97.9967 96.4665C97.9461 96.6078 97.9075 96.7158 97.8763 96.8296C97.8369 96.9732 97.836 97.0402 97.8385 97.0646C97.8453 97.1296 97.8715 97.2257 97.9421 97.38C97.9921 97.4895 98.0415 97.5825 98.1022 97.6968C98.1379 97.7639 98.1773 97.8382 98.2232 97.9274C98.4247 98.3205 98.7505 98.9956 98.5391 99.7843C98.3278 100.573 97.7081 100.995 97.3371 101.234C97.2527 101.289 97.1814 101.333 97.117 101.374C97.0073 101.442 96.918 101.498 96.8199 101.568C96.6817 101.666 96.6109 101.736 96.5725 101.789C96.5301 101.848 96.4817 101.945 96.4279 102.113C96.3884 102.236 96.3589 102.351 96.3229 102.492C96.3057 102.56 96.2868 102.634 96.2646 102.717C96.1557 103.126 95.9536 103.865 95.2898 104.305C94.5877 104.771 93.8226 104.731 93.2992 104.678C93.1435 104.662 93.0066 104.646 92.8831 104.632C92.5179 104.588 92.2715 104.559 92.0119 104.599C91.894 104.618 91.7511 104.664 91.5571 104.75C91.4277 104.808 91.3347 104.853 91.2293 104.905C91.139 104.95 91.0395 104.999 90.9003 105.063C90.4292 105.281 89.715 105.571 88.8966 105.351C88.0782 105.132 87.6044 104.524 87.3055 104.1C87.2171 103.974 87.1555 103.882 87.0995 103.799C87.0342 103.701 86.9765 103.615 86.8931 103.501C86.768 103.329 86.6676 103.217 86.5747 103.143C86.3701 102.978 86.1421 102.88 85.8041 102.735C85.6899 102.686 85.5631 102.631 85.4205 102.567C84.9407 102.351 84.2581 102.003 83.883 101.249C83.5284 100.535 83.7225 99.795 83.8329 99.3861C83.8553 99.3028 83.8759 99.2293 83.8949 99.1618C83.9342 99.0218 83.9664 98.9071 83.9938 98.781C84.0311 98.6084 84.0376 98.5004 84.0302 98.4285C84.0233 98.3635 83.9972 98.2674 83.9267 98.1131C83.8765 98.0036 83.8271 97.9105 83.7664 97.7962C83.7307 97.7292 83.6913 97.6549 83.6455 97.5657C83.4439 97.1726 83.1182 96.4975 83.3295 95.7088C83.5408 94.9202 84.1605 94.4984 84.5316 94.2587C84.6159 94.2044 84.6872 94.1598 84.7516 94.1195C84.8613 94.0509 84.9506 93.995 85.0488 93.9253C85.1871 93.8269 85.2577 93.7568 85.2961 93.7039C85.3106 93.684 85.3432 93.6255 85.3809 93.4815C85.4107 93.3673 85.4313 93.2545 85.4582 93.1068C85.4675 93.0557 85.4775 93.0005 85.489 92.9396C85.4902 92.9327 85.4916 92.9255 85.493 92.9182C85.5609 92.5557 85.6998 91.8152 86.3201 91.367C86.9483 90.9132 87.5517 90.8716 88.0336 90.8854C88.1661 90.8892 88.2793 90.8951 88.3806 90.9004C88.6618 90.915 88.8505 90.9248 89.1011 90.8722C89.2941 90.8318 89.5207 90.7586 89.802 90.6577C89.877 90.6309 89.9578 90.6014 90.0424 90.5705C90.2516 90.494 90.4836 90.4092 90.7069 90.3362Z" fill="#343A46"/>
<path fill-rule="evenodd" clip-rule="evenodd" d="M94.2817 98.5335C93.7773 100.416 91.8493 101.567 89.9484 101.057C88.0476 100.548 86.9533 98.5874 87.4577 96.705C87.962 94.8227 89.8901 93.6718 91.7909 94.1811C93.6918 94.6904 94.7861 96.6512 94.2817 98.5335ZM90.3161 99.6854C91.4427 99.9873 92.604 99.307 92.9097 98.1658C93.2155 97.0248 92.55 95.855 91.4233 95.5531C90.2967 95.2512 89.1354 95.9315 88.8297 97.0726C88.5239 98.2137 89.1894 99.3835 90.3161 99.6854Z" fill="#343A46"/>
</g>
<defs>
<clipPath id="clip0_2011_62405">
<rect width="128" height="128" fill="white" transform="translate(33.1289) rotate(15)"/>
</clipPath>
</defs>
</svg>
