<svg width="148" height="148" viewBox="0 0 148 148" fill="none" xmlns="http://www.w3.org/2000/svg">
<g clip-path="url(#clip0_2011_62428)">
<path d="M0 53.9641L18.7061 43.1641L29.5061 61.8703L10.8 72.6703L0 53.9641Z" fill="#6E82F4"/>
<path d="M29.5061 61.8703L48.2123 51.0703L59.0123 69.7764L40.3061 80.5764L29.5061 61.8703Z" fill="#6E82F4"/>
<path d="M21.6 91.3764L40.3061 80.5764L51.1061 99.2826L32.4 110.083L21.6 91.3764Z" fill="#6E82F4"/>
<path d="M51.1061 99.2826L69.8123 88.4826L80.6123 107.189L61.9061 117.989L51.1061 99.2826Z" fill="#6E82F4"/>
<path d="M66.9184 40.2703L85.6246 29.4703L96.4246 48.1764L77.7184 58.9764L66.9184 40.2703Z" fill="#6E82F4"/>
<path d="M59.0123 69.7764L77.7184 58.9764L88.5184 77.6826L69.8123 88.4826L59.0123 69.7764Z" fill="#6E82F4"/>
<path d="M43.2 128.789L61.9061 117.989L72.7061 136.695L54 147.495L43.2 128.789Z" fill="#6E82F4"/>
<path d="M96.4246 48.1764L115.131 37.3764L125.931 56.0826L107.225 66.8826L96.4246 48.1764Z" fill="#6E82F4"/>
<path d="M37.4123 32.3641L56.1184 21.5641L66.9184 40.2703L48.2123 51.0703L37.4123 32.3641Z" fill="#6E82F4"/>
<path d="M88.5184 77.6826L107.225 66.8826L118.025 85.5887L99.3184 96.3887L88.5184 77.6826Z" fill="#6E82F4"/>
<path d="M80.6123 107.189L99.3184 96.3887L110.118 115.095L91.4123 125.895L80.6123 107.189Z" fill="#6E82F4"/>
<path d="M74.8246 10.7641L93.5307 -0.0358887L104.331 18.6703L85.6246 29.4703L74.8246 10.7641Z" fill="#6E82F4"/>
<path d="M118.025 85.5887L136.731 74.7887L147.531 93.4949L128.825 104.295L118.025 85.5887Z" fill="#6E82F4"/>
</g>
<defs>
<clipPath id="clip0_2011_62428">
<rect width="107.928" height="107.928" fill="white" transform="translate(0 53.9641) rotate(-30)"/>
</clipPath>
</defs>
</svg>
