<svg width="278" height="260" viewBox="0 0 278 260" fill="none" xmlns="http://www.w3.org/2000/svg">
<path fill-rule="evenodd" clip-rule="evenodd" d="M134.104 78.1806C134.021 72.1604 133.233 66.0883 131.658 59.9747C126.134 38.52 101.49 24.7462 75.2605 21.5078C49.0411 18.2693 21.775 25.6388 11.2664 44.3014C5.25567 54.9716 4.42661 64.1681 6.88274 71.9217C9.32851 79.6337 15.1316 86.0275 23.0078 91.0097C44.9678 104.887 83.427 107.721 100.972 101.919C109.087 99.2303 117.014 95.9921 124.735 92.2866C120.32 116.544 103.874 139.524 81.9239 160.232C34.2211 205.238 -39.8046 239.397 -80.1183 251.956C-82.2843 252.631 -83.4865 254.935 -82.8129 257.104C-82.1393 259.274 -79.8387 260.488 -77.6727 259.814C-36.561 247.005 38.9055 212.119 87.5514 166.221C112.683 142.514 130.591 115.827 133.648 87.7714C190.46 57.3694 237.116 2.21224 277.005 -44.2054C278.487 -45.9181 278.29 -48.5234 276.57 -50.0077C274.85 -51.4816 272.258 -51.2949 270.776 -49.5719C232.515 -5.05367 188.108 47.9032 134.104 78.1806ZM125.844 82.5919C126.155 75.8244 125.492 68.953 123.699 62.0195C118.921 43.4503 96.9613 32.4688 74.2551 29.6663C60.337 27.9536 46.0253 29.3653 34.8017 34.389C27.7442 37.5444 21.9301 42.1218 18.4272 48.3496C13.8259 56.5183 12.8309 63.5039 14.717 69.4306C16.6032 75.3989 21.2879 80.1942 27.392 84.045C47.4037 96.6977 82.4215 99.3863 98.3915 94.103C107.812 90.9892 116.953 87.1071 125.844 82.5919Z" fill="white"/>
</svg>
