<svg width="89" height="89" viewBox="0 0 89 89" fill="none" xmlns="http://www.w3.org/2000/svg">
<g clip-path="url(#clip0_2011_61016)">
<path d="M82.7914 80.2742C84.9161 78.1495 86.555 75.5806 87.6145 72.7142C88.6741 69.8478 89.1335 66.74 88.9666 63.5683C88.7996 60.3966 88.0096 57.2231 86.6416 54.2289C85.2737 51.2348 83.3545 48.4786 80.9937 46.1178C78.6329 43.7571 75.8768 41.8379 72.8826 40.4699C69.8884 39.1019 66.7149 38.3119 63.5432 38.145C60.3715 37.9781 57.2637 38.4375 54.3973 39.497C51.5309 40.5566 48.962 42.1955 46.8373 44.3202L82.7914 80.2742Z" fill="#BC6CEF"/>
<path d="M6.20861 8.72499C4.0839 10.8497 2.445 13.4186 1.38546 16.285C0.325918 19.1514 -0.133502 22.2591 0.0334293 25.4308C0.20036 28.6025 0.990372 31.7761 2.35836 34.7702C3.72635 37.7644 5.64552 40.5205 8.0063 42.8813C10.3671 45.2421 13.1232 47.1613 16.1174 48.5292C19.1116 49.8972 22.2851 50.6872 25.4568 50.8542C28.6285 51.0211 31.7363 50.5617 34.6027 49.5021C37.4691 48.4426 40.038 46.8037 42.1627 44.679L6.20861 8.72499Z" fill="#BC6CEF"/>
<path d="M8.72541 82.791C10.8501 84.9157 13.419 86.5546 16.2854 87.6142C19.1518 88.6737 22.2596 89.1331 25.4313 88.9662C28.603 88.7992 31.7765 88.0092 34.7707 86.6412C37.7649 85.2733 40.521 83.3541 42.8818 80.9933C45.2426 78.6325 47.1618 75.8764 48.5298 72.8822C49.8977 69.8881 50.6878 66.7145 50.8547 63.5428C51.0216 60.3711 50.5622 57.2634 49.5027 54.397C48.4431 51.5306 46.8042 48.9617 44.6795 46.837L8.72541 82.791Z" fill="#BC6CEF"/>
<path d="M80.2737 6.20858C78.149 4.08388 75.5801 2.44498 72.7137 1.38545C69.8473 0.325913 66.7395 -0.133503 63.5678 0.0334302C60.3961 0.200363 57.2226 0.990375 54.2284 2.35836C51.2342 3.72635 48.4781 5.64552 46.1173 8.00629C43.7565 10.3671 41.8374 13.1232 40.4694 16.1174C39.1014 19.1115 38.3114 22.2851 38.1444 25.4568C37.9775 28.6285 38.4369 31.7362 39.4964 34.6026C40.556 37.469 42.1949 40.0379 44.3196 42.1626L80.2737 6.20858Z" fill="#BC6CEF"/>
</g>
<defs>
<clipPath id="clip0_2011_61016">
<rect width="89" height="89" fill="white"/>
</clipPath>
</defs>
</svg>
