<svg width="302" height="296" viewBox="0 0 302 296" fill="none" xmlns="http://www.w3.org/2000/svg">
<path fill-rule="evenodd" clip-rule="evenodd" d="M150.132 104.242C150.044 97.8927 149.213 91.4886 147.551 85.0408C141.721 62.4134 115.711 47.8867 88.0284 44.4712C60.3564 41.0557 31.5797 48.8281 20.489 68.5108C14.1452 79.7643 13.2702 89.4634 15.8624 97.6409C18.4437 105.774 24.5682 112.518 32.8808 117.772C56.0575 132.408 96.6473 135.397 115.165 129.278C123.729 126.442 132.096 123.027 140.244 119.119C135.585 144.702 118.227 168.939 95.061 190.778C44.7153 238.244 -33.4115 274.271 -75.9587 287.516C-78.2446 288.228 -79.5135 290.658 -78.8026 292.946C-78.0916 295.234 -75.6635 296.515 -73.3776 295.803C-29.9882 282.295 49.6593 245.502 101 197.094C127.524 172.091 146.424 143.947 149.651 114.357C209.61 82.2932 258.851 24.1209 300.95 -24.834C302.514 -26.6403 302.306 -29.3881 300.491 -30.9535C298.675 -32.508 295.94 -32.311 294.376 -30.4938C253.995 16.4579 207.127 72.3095 150.132 104.242ZM141.415 108.894C141.743 101.757 141.043 94.51 139.15 87.1974C134.108 67.6132 110.931 56.0314 86.9673 53.0757C72.2781 51.2694 57.1735 52.7583 45.3281 58.0566C37.8796 61.3845 31.7434 66.2121 28.0465 72.7803C23.1902 81.3956 22.1401 88.7629 24.1307 95.0137C26.1214 101.308 31.0657 106.366 37.5079 110.427C58.6283 123.771 95.5861 126.607 112.441 121.035C122.383 117.751 132.03 113.656 141.415 108.894Z" fill="#BC6CEF"/>
</svg>
