<svg width="267" height="60" viewBox="0 0 267 60" fill="none" xmlns="http://www.w3.org/2000/svg">
<path d="M226.294 3.05176e-05H217.639V29.7519H226.294V3.05176e-05Z" fill="#6E83F5"/>
<path d="M226.294 29.7519H217.639V59.5038H226.294V29.7519Z" fill="#6E83F5"/>
<path d="M256.856 3.05176e-05H248.201V29.7519H256.856V3.05176e-05Z" fill="#33E2BD"/>
<path d="M207.496 10.5486V19.2034H233.664V10.5486L207.496 10.5486Z" fill="#BD6BEE"/>
<path d="M237.248 10.5491V19.204L267 19.204V10.5491L237.248 10.5491Z" fill="#33E2BD"/>
<path d="M256.856 33.3068H248.201V59.4747H256.856V33.3068Z" fill="#BD6BEE"/>
<path d="M207.496 40.301V48.9558H237.248V40.301H207.496Z" fill="#6E83F5"/>
<path d="M237.248 40.301V48.9558H267V40.301H237.248Z" fill="#6E83F5"/>
<path d="M165.531 41.3981V37.229H168.859C169.576 37.229 170.203 37.2942 170.738 37.4247C170.046 36.7853 169.7 35.9306 169.7 34.8606C169.7 32.8641 170.379 31.2525 171.736 30.0259C173.132 28.7601 175.018 28.1272 177.393 28.1272C179.937 28.1272 181.843 28.9232 183.108 30.5152C184.218 31.9245 184.772 33.8558 184.772 36.309V37.229H188.824V36.7396C188.824 32.5639 187.93 29.4909 186.142 27.5205C184.315 25.524 181.425 24.5257 177.471 24.5257C174.692 24.5257 171.834 25.0085 168.898 25.9741L168.409 22.1964C171.632 21.1525 174.868 20.6306 178.117 20.6306C188.622 20.6306 193.874 26.1242 193.874 37.1115V41.3981H165.531ZM180.446 36.2307C180.446 33.0467 179.311 31.4548 177.041 31.4548C175.031 31.4548 174.026 32.3747 174.026 34.2146C174.026 36.3286 175.285 37.3856 177.804 37.3856H180.446V36.2307Z" fill="#2D3365"/>
<path d="M154.178 37.229H165.981V41.3982H154.178V37.229Z" fill="#2D3365"/>
<path d="M142.826 37.229H154.629V41.3982H142.826V37.229Z" fill="#2D3365"/>
<path d="M134.135 13.1339H139.42V37.229H143.432V41.3981H134.135V13.1339Z" fill="#2D3365"/>
<path d="M94.7528 50.6173C87.8629 50.6173 84.418 46.82 84.418 39.2255C84.418 36.7722 84.7377 34.3843 85.3771 32.0615L90.8381 31.0633C90.0813 33.7253 89.7028 36.2894 89.7028 38.7557C89.7028 43.9101 91.5362 46.4873 95.203 46.4873C98.5436 46.4873 100.214 43.9623 100.214 38.9123V24.9563H105.499V32.3747C105.499 34.2538 105.727 35.5848 106.184 36.3677C106.641 37.1507 107.404 37.5421 108.474 37.5421C110.497 37.5421 111.508 35.8327 111.508 32.4139V23.3513H116.558V33.4121C116.558 34.965 116.897 35.9958 117.576 36.5047C118.202 36.9876 119.455 37.229 121.334 37.229H122.371C122.567 35.363 122.665 33.7579 122.665 32.4139C122.665 28.721 122.273 25.139 121.49 21.668L126.677 20.9633C127.526 24.5518 127.95 28.2512 127.95 32.0615C127.95 35.1281 127.747 38.2403 127.343 41.3981H120.727C116.643 41.3981 114.163 40.4782 113.289 38.6383C112.454 40.6348 110.784 41.633 108.278 41.633C106.843 41.633 105.838 41.222 105.264 40.3999C105.277 43.897 104.24 46.533 102.152 48.3076C100.338 49.8474 97.8716 50.6173 94.7528 50.6173ZM113.876 13.8189C113.198 13.8189 112.624 13.571 112.154 13.0751C111.671 12.5923 111.43 11.9986 111.43 11.2939C111.43 10.5893 111.671 9.99556 112.154 9.51275C112.624 9.01688 113.198 8.76895 113.876 8.76895C114.581 8.76895 115.175 9.01688 115.657 9.51275C116.127 9.99556 116.362 10.5893 116.362 11.2939C116.362 11.9986 116.127 12.5923 115.657 13.0751C115.175 13.571 114.581 13.8189 113.876 13.8189ZM117.243 19.5149C116.486 19.5149 115.853 19.2474 115.344 18.7123C114.822 18.1904 114.561 17.551 114.561 16.7941C114.561 16.0373 114.822 15.3914 115.344 14.8563C115.853 14.3213 116.486 14.0538 117.243 14.0538C117.987 14.0538 118.613 14.3213 119.122 14.8563C119.631 15.3783 119.885 16.0242 119.885 16.7941C119.885 17.5379 119.631 18.1773 119.122 18.7123C118.613 19.2474 117.987 19.5149 117.243 19.5149ZM110.588 19.5149C109.857 19.5149 109.231 19.2474 108.709 18.7123C108.2 18.1904 107.945 17.551 107.945 16.7941C107.945 16.0373 108.2 15.3914 108.709 14.8563C109.231 14.3213 109.857 14.0538 110.588 14.0538C111.332 14.0538 111.958 14.3213 112.467 14.8563C112.989 15.3783 113.25 16.0242 113.25 16.7941C113.25 17.5379 112.989 18.1773 112.467 18.7123C111.958 19.2474 111.332 19.5149 110.588 19.5149Z" fill="#2D3365"/>
<path d="M60.8516 37.2289H66.4692V22.5487H71.7541V41.3981H60.8516V37.2289ZM66.1364 50.1867C65.3796 50.1867 64.7271 49.9192 64.1791 49.3841C63.6441 48.8491 63.3766 48.1902 63.3766 47.4072C63.3766 46.6504 63.6441 45.9979 64.1791 45.4499C64.7271 44.9148 65.3796 44.6473 66.1364 44.6473C66.9063 44.6473 67.5588 44.9148 68.0938 45.4499C68.6419 45.9849 68.9159 46.6373 68.9159 47.4072C68.9159 48.1771 68.6419 48.8296 68.0938 49.3646C67.5588 49.9126 66.9063 50.1867 66.1364 50.1867Z" fill="#2D3365"/>
<path d="M47.1895 37.229H52.1611V13.1339H57.446V37.229H61.4586V41.3981H47.1895V37.229Z" fill="#2D3365"/>
<path d="M36.8344 41.3981C32.7501 41.3981 30.2707 40.4782 29.3965 38.6382C28.5613 40.6348 26.891 41.633 24.3856 41.633C22.9502 41.633 21.9454 41.222 21.3713 40.3999C21.3843 43.897 20.3469 46.5329 18.2591 48.3076C16.4453 49.8474 13.979 50.6173 10.8603 50.6173C3.97034 50.6173 0.525391 46.82 0.525391 39.2255C0.525391 36.7722 0.845093 34.3843 1.4845 32.0615L6.94553 31.0633C6.18869 33.7253 5.81026 36.2894 5.81026 38.7557C5.81026 43.9101 7.64366 46.4873 11.3104 46.4873C14.651 46.4873 16.3213 43.9623 16.3213 38.9123V24.9563H21.6062V32.3747C21.6062 34.2538 21.8345 35.5848 22.2912 36.3677C22.748 37.1507 23.5113 37.5421 24.5813 37.5421C26.604 37.5421 27.6153 35.8327 27.6153 32.4138V23.3513H32.6652V33.4121C32.6652 34.9649 33.0045 35.9958 33.6831 36.5047C34.3094 36.9875 35.5621 37.2289 37.4412 37.2289H38.4786C38.6743 35.3629 38.7722 33.7579 38.7722 32.4138C38.7722 28.721 38.3807 25.139 37.5978 21.6679L42.7848 20.9633C43.633 24.5518 44.0571 28.2512 44.0571 32.0615C44.0571 33.5491 43.9918 35.2716 43.8613 37.2289H47.7956V41.3981H36.8344Z" fill="#2D3365"/>
</svg>
