<svg width="21" height="24" viewBox="0 0 21 24" fill="none" xmlns="http://www.w3.org/2000/svg">
<g clip-path="url(#clip0_2011_44272)">
<path d="M12.7816 20.8748C12.4077 21.7058 12.1707 22.5922 12.0801 23.4992L19.8354 21.8472C20.2095 21.0162 20.4464 20.1298 20.5371 19.2227L12.7816 20.8748Z" fill="#343A46"/>
<path d="M19.835 16.8989C20.2091 16.0678 20.4461 15.1814 20.5367 14.2743L14.4956 15.562V13.0869L19.835 11.9497C20.2091 11.1188 20.4461 10.2324 20.5367 9.32534L14.4956 10.6117V1.7106C13.571 2.23135 12.7517 2.9205 12.0795 3.74262V11.1263L9.66422 11.6407V0.5C8.73939 1.02073 7.9197 1.70987 7.24725 2.53201V12.1553L1.84132 13.3064C1.46723 14.1375 1.23024 15.0239 1.13961 15.931L7.24725 14.6313V17.7472L0.701523 19.1412C0.3276 19.9723 0.0906818 20.8586 0 21.7656L6.85082 20.3075C7.39958 20.1926 7.88281 19.8696 8.1996 19.4061L9.45632 17.5389C9.5912 17.3389 9.66306 17.1029 9.66257 16.8615V14.1156L12.0786 13.601V18.5516L19.835 16.8989Z" fill="#343A46"/>
</g>
<defs>
<clipPath id="clip0_2011_44272">
<rect width="21" height="23" fill="white" transform="translate(0 0.5)"/>
</clipPath>
</defs>
</svg>
