<svg width="157" height="157" viewBox="0 0 157 157" fill="none" xmlns="http://www.w3.org/2000/svg">
<g clip-path="url(#clip0_2011_62380)">
<path d="M22.0181 62.3353C21.2811 59.5847 22.9135 56.7572 25.6642 56.0202L109.995 33.4238C112.746 32.6867 115.573 34.3192 116.31 37.0699L131.118 92.3346C131.855 95.0853 130.223 97.9125 127.472 98.6497L43.1414 121.246C40.3908 121.983 37.5633 120.351 36.8263 117.6L22.0181 62.3353Z" fill="white"/>
<path fill-rule="evenodd" clip-rule="evenodd" d="M25.2189 54.36L109.55 31.7636C113.217 30.7809 116.987 32.9574 117.97 36.625L132.778 91.8897C133.761 95.5573 131.584 99.327 127.917 100.31L43.5858 122.906C39.9182 123.889 36.1484 121.712 35.1656 118.045L20.3575 62.7801C19.3748 59.1125 21.5512 55.3428 25.2189 54.36ZM25.6637 56.0202C22.913 56.7572 21.2806 59.5846 22.0176 62.3353L36.8258 117.6C37.5628 120.351 40.3903 121.983 43.1409 121.246L127.472 98.6496C130.223 97.9125 131.855 95.0852 131.118 92.3346L116.309 37.0699C115.572 34.3192 112.746 32.6866 109.995 33.4238L25.6637 56.0202Z" fill="#343A46"/>
<path d="M30.669 71.2515C30.1776 69.4177 31.266 67.5328 33.0997 67.0415L71.7104 56.6957C73.5442 56.2044 75.4291 57.2926 75.9205 59.1264L81.5351 80.0803C82.0264 81.9142 80.9382 83.799 79.1044 84.2904L40.4936 94.6361C38.6599 95.1275 36.7749 94.0393 36.2836 92.2054L30.669 71.2515Z" fill="#BC6CEF"/>
<path fill-rule="evenodd" clip-rule="evenodd" d="M37.6292 99.8055C37.3794 98.8896 37.9193 97.9448 38.8351 97.6949L81.4897 86.0597C82.4054 85.8098 83.3503 86.3497 83.6002 87.2655C83.8499 88.1813 83.3101 89.1262 82.3943 89.3759L39.7397 101.011C38.8239 101.261 37.8791 100.721 37.6292 99.8055Z" fill="#343A46"/>
<path fill-rule="evenodd" clip-rule="evenodd" d="M39.1736 104.509C39.0507 104.051 39.3229 103.579 39.7813 103.457L72.5887 94.6658C73.0471 94.543 73.5184 94.815 73.6412 95.2734C73.7641 95.7319 73.4919 96.2031 73.0335 96.3259L40.2261 105.117C39.7677 105.239 39.2964 104.967 39.1736 104.509Z" fill="#343A46"/>
<path fill-rule="evenodd" clip-rule="evenodd" d="M41.3845 112.763C41.2617 112.305 41.5338 111.834 41.9922 111.711L74.7996 102.92C75.258 102.797 75.7293 103.069 75.8521 103.528C75.975 103.986 75.7029 104.457 75.2444 104.58L42.4371 113.371C41.9786 113.494 41.5074 113.222 41.3845 112.763Z" fill="#343A46"/>
<path fill-rule="evenodd" clip-rule="evenodd" d="M40.0017 107.602C39.8789 107.143 40.151 106.672 40.6094 106.549L57.4374 102.04C57.8958 101.917 58.367 102.189 58.4898 102.648C58.6127 103.106 58.3406 103.578 57.8822 103.7L41.0542 108.209C40.5958 108.332 40.1246 108.06 40.0017 107.602Z" fill="#343A46"/>
<path fill-rule="evenodd" clip-rule="evenodd" d="M42.0662 115.309C41.9433 114.85 42.2154 114.379 42.6739 114.256L54.9767 110.96C55.4351 110.837 55.9063 111.109 56.0291 111.567C56.152 112.026 55.88 112.497 55.4215 112.62L43.1187 115.916C42.6603 116.039 42.189 115.767 42.0662 115.309Z" fill="#343A46"/>
<path fill-rule="evenodd" clip-rule="evenodd" d="M100.379 50.6806C100.256 50.2222 100.528 49.751 100.986 49.6282L114.632 45.9717C115.091 45.8488 115.563 46.1207 115.685 46.5792C115.808 47.0377 115.536 47.5089 115.077 47.6319L101.431 51.2883C100.973 51.4112 100.502 51.1391 100.379 50.6806Z" fill="#343A46"/>
<path fill-rule="evenodd" clip-rule="evenodd" d="M101.287 54.0667C101.164 53.6082 101.436 53.137 101.894 53.0142L109.343 51.0182C109.802 50.8953 110.273 51.1675 110.396 51.626C110.518 52.0844 110.247 52.5554 109.788 52.6783L102.339 54.6743C101.881 54.7971 101.41 54.5251 101.287 54.0667Z" fill="#343A46"/>
<path fill-rule="evenodd" clip-rule="evenodd" d="M109.39 84.3113C109.268 83.8528 109.54 83.3816 109.998 83.2588L123.644 79.6024C124.103 79.4794 124.574 79.7514 124.697 80.2099C124.82 80.6683 124.548 81.1396 124.089 81.2625L110.443 84.9189C109.984 85.0418 109.513 84.7697 109.39 84.3113Z" fill="#343A46"/>
<path fill-rule="evenodd" clip-rule="evenodd" d="M110.299 87.6973C110.176 87.2389 110.448 86.7676 110.906 86.6448L118.355 84.6488C118.814 84.5259 119.285 84.7982 119.407 85.2566C119.53 85.715 119.259 86.186 118.8 86.309L111.351 88.3049C110.893 88.4278 110.421 88.1557 110.299 87.6973Z" fill="#343A46"/>
<path fill-rule="evenodd" clip-rule="evenodd" d="M104.541 66.2105C104.418 65.752 104.69 65.2808 105.148 65.1579L118.794 61.5015C119.253 61.3786 119.725 61.6505 119.848 62.1091C119.97 62.5675 119.698 63.0387 119.239 63.1617L105.593 66.8181C105.135 66.9409 104.664 66.6689 104.541 66.2105Z" fill="#343A46"/>
<path fill-rule="evenodd" clip-rule="evenodd" d="M105.449 69.5965C105.326 69.1379 105.598 68.6668 106.057 68.544L113.506 66.548C113.964 66.4251 114.435 66.6973 114.558 67.1558C114.681 67.6142 114.409 68.0852 113.95 68.2081L106.501 70.2041C106.043 70.3269 105.572 70.0549 105.449 69.5965Z" fill="#343A46"/>
<path fill-rule="evenodd" clip-rule="evenodd" d="M81.668 53.0058L95.1302 49.3986C96.964 48.9073 98.8489 49.9955 99.3403 51.8293L101.676 60.5451C102.167 62.3789 101.079 64.2637 99.245 64.7551L85.7828 68.3623C83.949 68.8537 82.0641 67.7654 81.5727 65.9316L79.2373 57.2159C78.746 55.3821 79.8342 53.4972 81.668 53.0058ZM82.1129 54.6661C81.1959 54.9117 80.6518 55.8542 80.8975 56.771L83.2329 65.4868C83.4785 66.4036 84.421 66.9478 85.3379 66.7021L98.8001 63.0949C99.717 62.8492 100.261 61.9067 100.016 60.9899L97.6802 52.2741C97.4345 51.3573 96.492 50.8132 95.5751 51.0589L82.1129 54.6661Z" fill="#343A46"/>
<path d="M59.8074 73.2758L55.0721 71.5016C53.763 71.0111 52.4471 72.2056 52.8089 73.5559L54.3151 79.1772C54.675 80.5204 56.3978 80.9024 57.2918 79.8373L60.5207 75.9902C61.2833 75.0816 60.9181 73.692 59.8074 73.2758Z" fill="white"/>
<path fill-rule="evenodd" clip-rule="evenodd" d="M28.4446 59.2342L109.409 37.54C110.838 37.1569 112.308 38.0056 112.691 39.4355C113.074 40.8655 112.226 42.3353 110.796 42.7183L29.8322 64.4125C28.4022 64.7957 26.9324 63.9471 26.5492 62.5171C26.1661 61.0872 27.0147 59.6174 28.4446 59.2342ZM28.8895 60.8944C28.3764 61.0318 28.0719 61.5592 28.2094 62.0723C28.3468 62.5853 28.8742 62.8898 29.3873 62.7523L110.351 41.0581C110.864 40.9207 111.168 40.3934 111.031 39.8804C110.893 39.3673 110.366 39.0627 109.853 39.2001L28.8895 60.8944Z" fill="#343A46"/>
<path fill-rule="evenodd" clip-rule="evenodd" d="M86.0001 69.175L99.4623 65.5678C101.296 65.0765 103.181 66.1647 103.672 67.9985L106.008 76.7142C106.499 78.5481 105.411 80.4329 103.577 80.9243L90.1148 84.5315C88.281 85.0229 86.3961 83.9345 85.9048 82.1008L83.5694 73.3851C83.078 71.5513 84.1662 69.6664 86.0001 69.175ZM86.4449 70.8351C85.5279 71.0808 84.9838 72.0234 85.2295 72.9402L87.5649 81.656C87.8106 82.5728 88.753 83.117 89.67 82.8713L103.132 79.2641C104.049 79.0184 104.593 78.0759 104.348 77.1591L102.012 68.4433C101.767 67.5265 100.824 66.9823 99.9071 67.228L86.4449 70.8351Z" fill="#343A46"/>
<path fill-rule="evenodd" clip-rule="evenodd" d="M90.6114 86.3825L104.074 82.7753C105.907 82.284 107.792 83.3722 108.284 85.206L110.619 93.9218C111.11 95.7556 110.022 97.6405 108.188 98.1318L94.7261 101.739C92.8923 102.23 91.0074 101.142 90.5161 99.3083L88.1807 90.5926C87.6893 88.7588 88.7776 86.8739 90.6114 86.3825ZM91.0562 88.0427C90.1393 88.2884 89.5952 89.2309 89.8408 90.1478L92.1762 98.8635C92.4219 99.7804 93.3643 100.324 94.2813 100.079L107.743 96.4716C108.66 96.2259 109.205 95.2835 108.959 94.3666L106.624 85.6509C106.378 84.734 105.435 84.1898 104.518 84.4355L91.0562 88.0427Z" fill="#343A46"/>
<path fill-rule="evenodd" clip-rule="evenodd" d="M89.9208 59.7359C90.0107 60.0716 90.4414 60.1671 90.6649 59.9009L91.6077 58.7776C91.7984 58.5504 91.7071 58.203 91.4294 58.0989L90.0467 57.581C89.7194 57.4583 89.3905 57.7569 89.4809 58.0945L89.9208 59.7359ZM90.6498 55.9714L92.0324 56.4894C93.4209 57.0097 93.8775 58.7468 92.9242 59.8825L91.9814 61.0058C90.864 62.3372 88.7104 61.8596 88.2605 60.1807L87.8207 58.5393C87.3684 56.8514 89.0133 55.3583 90.6498 55.9714Z" fill="#343A46"/>
<path fill-rule="evenodd" clip-rule="evenodd" d="M94.4246 76.5458C94.5146 76.8817 94.9453 76.9772 95.1688 76.7109L96.1116 75.5876C96.3023 75.3605 96.211 75.013 95.9333 74.909L94.5506 74.3909C94.2233 74.2683 93.8944 74.5669 93.9849 74.9045L94.4246 76.5458ZM95.1537 72.7815L96.5363 73.2995C97.9248 73.8197 98.3814 75.5569 97.4282 76.6926L96.4853 77.8159C95.3679 79.1473 93.2143 78.6697 92.7644 76.9907L92.3246 75.3494C91.8723 73.6614 93.5172 72.1683 95.1537 72.7815Z" fill="#343A46"/>
<path fill-rule="evenodd" clip-rule="evenodd" d="M98.9774 93.5332C99.0674 93.869 99.4981 93.9645 99.7216 93.6983L100.664 92.575C100.855 92.3478 100.764 92.0004 100.486 91.8963L99.1034 91.3783C98.776 91.2556 98.4471 91.5543 98.5376 91.8918L98.9774 93.5332ZM99.7064 89.7688L101.089 90.2868C102.478 90.807 102.934 92.5442 101.981 93.6799L101.038 94.8032C99.9206 96.1346 97.767 95.657 97.3172 93.9781L96.8773 92.3367C96.4251 90.6487 98.07 89.1556 99.7064 89.7688Z" fill="#343A46"/>
</g>
<defs>
<clipPath id="clip0_2011_62380">
<rect width="128" height="128" fill="white" transform="translate(0 33.1289) rotate(-15)"/>
</clipPath>
</defs>
</svg>
